HIERARCHY
ROOT hip
{
	OFFSET 0.000000 0.000000 0.000000
	CHANNELS 6 Xposition Yposition Zposition Xrotation Zrotation Yrotation 
	JOINT abdomen
	{
		OFFSET 0.000000 3.422050 0.000000
		CHANNELS 3 Xrotation Zrotation Yrotation 
		JOINT chest
		{
			OFFSET 0.000000 8.486693 -0.684411
			CHANNELS 3 Xrotation Zrotation Yrotation 
			JOINT neck
			{
				OFFSET 0.000000 10.266162 -0.273764
				CHANNELS 3 Xrotation Zrotation Yrotation 
				JOINT head
				{
					OFFSET 0.000000 3.148285 0.000000
					CHANNELS 3 Xrotation Zrotation Yrotation 
					End Site
					{
						OFFSET 0.000000 3.148289 0.000000
					}
				}
			}
			JOINT lCollar
			{
				OFFSET 3.422053 6.707223 -0.821293
				CHANNELS 3 Yrotation Zrotation Xrotation 
				JOINT lShldr
				{
					OFFSET 3.285171 0.000000 0.000000
					CHANNELS 3 Zrotation Yrotation Xrotation 
					JOINT lForeArm
					{
						OFFSET 10.129278 0.000000 0.000000
						CHANNELS 3 Yrotation Zrotation Xrotation 
						JOINT lHand
						{
							OFFSET 8.486692 0.000000 0.000000
							CHANNELS 3 Zrotation Yrotation Xrotation 
							End Site
							{
								OFFSET 4.106464 0.000000 0.000000
							}
						}
					}
				}
			}
			JOINT rCollar
			{
				OFFSET -3.558935 6.707223 -0.821293
				CHANNELS 3 Yrotation Zrotation Xrotation 
				JOINT rShldr
				{
					OFFSET -3.148289 0.000000 0.000000
					CHANNELS 3 Zrotation Yrotation Xrotation 
					JOINT rForeArm
					{
						OFFSET -10.266159 0.000000 0.000000
						CHANNELS 3 Yrotation Zrotation Xrotation 
						JOINT rHand
						{
							OFFSET -8.349810 0.000000 0.000000
							CHANNELS 3 Zrotation Yrotation Xrotation 
							End Site
							{
								OFFSET -4.106464 0.000000 0.000000
							}
						}
					}
				}
			}
		}
	}
	JOINT lThigh
	{
		OFFSET 5.338403 -1.642589 1.368821
		CHANNELS 3 Xrotation Zrotation Yrotation 
		JOINT lShin
		{
			OFFSET -2.053232 -20.121670 0.000000
			CHANNELS 3 Xrotation Zrotation Yrotation 
			JOINT lFoot
			{
				OFFSET 0.000000 -19.300380 -1.231939
				CHANNELS 3 Xrotation Yrotation Zrotation 
				End Site
				{
					OFFSET 0.000000 -2.463878 4.653993
				}
			}
		}
	}
	JOINT rThigh
	{
		OFFSET -5.338403 -1.642589 1.368821
		CHANNELS 3 Xrotation Zrotation Yrotation 
		JOINT rShin
		{
			OFFSET 2.053232 -20.121670 0.000000
			CHANNELS 3 Xrotation Zrotation Yrotation 
			JOINT rFoot
			{
				OFFSET 0.000000 -19.300380 -1.231939
				CHANNELS 3 Xrotation Yrotation Zrotation 
				End Site
				{
					OFFSET 0.000000 -2.463878 4.653993
				}
			}
		}
	}
}
MOTION
Frames: 6
Frame Time: 0.066631
0.000000 43.528500 0.000000 0.000000 0.000000 0.000000 0.000000 0.000000 0.000000 0.000000 0.000000 0.000000 0.000000 0.000000 0.000000 0.000000 0.000000 0.000000 0.000000 0.000000 0.000000 0.000000 0.000000 0.000000 0.000000 0.000000 0.000000 0.000000 0.000000 0.000000 0.000000 0.000000 0.000000 0.000000 0.000000 0.000000 0.000000 0.000000 0.000000 0.000000 0.000000 0.000000 0.000000 0.000000 0.000000 0.000000 0.000000 0.000000 0.000000 0.000000 0.000000 0.000000 0.000000 0.000000 0.000000 0.000000 0.000000 0.000000 0.000000 0.000000 
3.979968 13.482107 -23.239929 0.000000 0.000000 0.000000 0.231738 -1.126588 -0.626541 2.287723 3.426391 -12.489684 -0.000195 7.999604 -18.000082 0.000000 0.000000 -21.000349 -13.702616 -18.333050 -5.423387 -33.001366 -11.003154 -28.000135 -60.859856 -6.518745 -6.188868 -31.228022 -7.893954 1.647102 28.300480 33.416557 -13.085408 12.752345 -5.007705 -1.195698 43.323261 12.396738 -13.260720 18.680334 9.193153 0.852167 -51.056747 6.089967 0.001440 145.190674 5.509057 -0.724722 56.105225 8.187260 3.213877 -51.053509 -6.167833 -0.026519 145.204590 -5.603344 0.727910 56.670399 -8.210264 -3.157530 
3.979968 13.482107 -23.239929 0.000000 0.000000 0.000000 0.231738 -1.126588 -0.626541 2.287723 3.426391 -12.489685 -0.000195 7.999604 -18.000082 0.111763 -0.215648 -20.250242 -13.702616 -18.333050 -5.423387 -33.001366 -11.003154 -28.000135 -60.859856 -6.518746 -6.188869 -31.228025 -7.893954 1.647102 28.300482 33.416557 -13.085408 12.752346 -5.007706 -1.195698 43.323261 12.396738 -13.260720 18.680338 9.193153 0.852168 -51.056747 6.089967 0.001440 145.190689 5.509057 -0.724722 56.105225 8.187261 3.213878 -51.053509 -6.167833 -0.026518 145.204605 -5.603345 0.727910 56.670399 -8.210264 -3.157530 
3.979968 13.482107 -23.239929 0.000000 0.000000 0.000000 0.231738 -1.126588 -0.626541 2.287723 3.426391 -12.489684 -0.000195 7.999604 -18.000082 0.220926 -0.433206 -19.498930 -13.702616 -18.333050 -5.423387 -33.001366 -11.003154 -28.000135 -60.859856 -6.518745 -6.188868 -31.228022 -7.893954 1.647102 28.300478 33.416553 -13.085407 12.752345 -5.007705 -1.195698 43.323257 12.396739 -13.260719 18.680334 9.193153 0.852167 -51.056747 6.089967 0.001440 145.190674 5.509057 -0.724722 56.105221 8.187260 3.213877 -51.053509 -6.167832 -0.026519 145.204605 -5.603344 0.727910 56.670399 -8.210264 -3.157530 
3.979968 13.482107 -23.239929 0.000000 0.000000 0.000000 0.231738 -1.126588 -0.626541 2.287723 3.426391 -12.489684 -0.000195 7.999604 -18.000082 0.327445 -0.652627 -18.746471 -13.702616 -18.333050 -5.423387 -33.001366 -11.003154 -28.000135 -60.859856 -6.518746 -6.188869 -31.228025 -7.893954 1.647102 28.300480 33.416557 -13.085408 12.752345 -5.007705 -1.195698 43.323261 12.396738 -13.260720 18.680334 9.193153 0.852167 -51.056747 6.089967 0.001440 145.190674 5.509057 -0.724722 56.105225 8.187261 3.213878 -51.053513 -6.167833 -0.026519 145.204590 -5.603344 0.727910 56.670399 -8.210264 -3.157530 
3.979968 13.482107 -23.239929 0.000000 0.000000 0.000000 0.231738 -1.126588 -0.626541 2.287723 3.426391 -12.489684 -0.000195 7.999602 -18.000080 0.431278 -0.873860 -17.992912 -13.702616 -18.333050 -5.423387 -33.001366 -11.003154 -28.000135 -60.859856 -6.518745 -6.188868 -31.228022 -7.893954 1.647102 28.300478 33.416557 -13.085407 12.752344 -5.007705 -1.195698 43.323261 12.396738 -13.260720 18.680334 9.193153 0.852167 -51.056740 6.089967 0.001440 145.190674 5.509057 -0.724722 56.105225 8.187260 3.213877 -51.053509 -6.167833 -0.026518 145.204590 -5.603344 0.727910 56.670399 -8.210264 -3.157530 
